<?xml version="1.0" encoding="iso-8859-1"?>
<!-- Generator: Adobe Illustrator 18.0.0, SVG Export Plug-In . SVG Version: 6.00 Build 0)  -->
<!DOCTYPE svg PUBLIC "-//W3C//DTD SVG 1.1//EN" "http://www.w3.org/Graphics/SVG/1.1/DTD/svg11.dtd">
<svg version="1.1" id="Capa_1" xmlns="http://www.w3.org/2000/svg" xmlns:xlink="http://www.w3.org/1999/xlink" x="0px" y="0px"
	 viewBox="0 0 297 297" style="enable-background:new 0 0 297 297;" xml:space="preserve">
<g>
	<g>
		<rect x="17.322" y="26.446" style="fill:#AEC1CF;" width="262.356" height="29.773"/>
	</g>
	<g>
		<rect x="17.322" y="0" style="fill:#5B7989;" width="262.356" height="26.446"/>
	</g>
	<g>
		<polygon style="fill:#8FA6B4;" points="148.878,186.148 17.322,0 17.322,58.09 148.878,235.713 		"/>
	</g>
	<g>
		<path style="fill:#5B7989;" d="M17.322,58.09v8.365c0,5.535,1.702,10.936,4.876,15.47l126.68,179.181v-25.394L17.322,58.09z"/>
	</g>
	<g>
		<polygon style="fill:#8FA6B4;" points="279.678,0 148.122,186.148 148.122,234.42 279.678,57.031 		"/>
	</g>
	<g>
		<path style="fill:#5B7989;" d="M148.122,234.42v26.687l126.68-179.181c3.174-4.535,4.876-9.936,4.876-15.47v-9.424L148.122,234.42
			z"/>
	</g>
	<g>
		<circle style="fill:#FFA800;" cx="148.5" cy="225.329" r="71.665"/>
	</g>
	<g>
		<path style="fill:#DD830B;" d="M186.519,164.599L97.878,276.033c14.909,14.866,36.188,23.068,58.734,20.5
			c39.325-4.48,67.573-39.991,63.093-79.316C217.136,194.672,204.358,175.783,186.519,164.599z"/>
	</g>
	<g>
		<circle style="fill:#F9B65F;" cx="148.5" cy="225.329" r="47.777"/>
	</g>
</g>
<g>
</g>
<g>
</g>
<g>
</g>
<g>
</g>
<g>
</g>
<g>
</g>
<g>
</g>
<g>
</g>
<g>
</g>
<g>
</g>
<g>
</g>
<g>
</g>
<g>
</g>
<g>
</g>
<g>
</g>
</svg>
